<svg fill="#000000" xmlns="http://www.w3.org/2000/svg"  viewBox="0 0 100 100" width="100px" height="100px"><path d="M 33.435547 10 C 29.282765 10 25.79432 13.182547 25.382812 17.333984 L 24.080078 30.175781 L 14.546875 32.494141 L 14.654297 32.472656 C 13.239562 32.655756 12.267809 33.766281 12.072266 34.953125 C 11.876722 36.139969 12.457757 37.509936 13.755859 38.105469 C 15.960907 39.116794 19.227717 40.389442 24 41.494141 L 24 43.191406 C 22.226738 43.425939 20.801569 43.898025 19.763672 44.783203 C 18.548229 45.819804 18 47.371457 18 49.154297 C 18 51.1959 18.688631 53.5181 19.830078 55.599609 C 20.857592 57.473354 22.256663 59.158037 24 60.140625 L 24 65 C 24 70.818 29.459344 79.372906 36.902344 84.628906 C 39.394344 89.020906 44.099 92 49.5 92 L 50.5 92 C 55.901 92 60.605656 89.020906 63.097656 84.628906 C 70.540656 79.372906 76 70.818 76 65 L 76 60.140625 C 77.743337 59.158037 79.142408 57.473354 80.169922 55.599609 C 81.311369 53.5181 82 51.1959 82 49.154297 C 82 47.371457 81.451771 45.819804 80.236328 44.783203 C 79.198431 43.898025 77.773262 43.425939 76 43.191406 L 76 41.515625 C 80.770476 40.419774 84.032446 39.156644 86.234375 38.152344 C 87.538495 37.557232 88.144054 36.199554 87.966797 35.003906 C 87.78954 33.808259 86.814281 32.684359 85.390625 32.498047 L 85.498047 32.517578 L 75.199219 30 L 75.904297 30 L 74.617188 17.333984 L 74.617188 17.332031 C 74.20479 13.181587 70.71659 10 66.564453 10 L 33.435547 10 z M 33.435547 12 L 66.564453 12 C 69.699672 12 72.314459 14.378687 72.626953 17.53125 L 72.628906 17.533203 L 74.019531 31.255859 C 69.69929 32.496611 61.994292 34 50 34 C 38.002468 34 30.297188 32.496249 25.978516 31.255859 L 25.994141 31.101562 L 26.595703 25.175781 C 29.947162 26.255069 37.321667 28 50 28 C 53.178003 28 56.003736 27.885894 58.535156 27.705078 A 0.50026033 0.50026033 0 1 0 58.464844 26.707031 C 55.956262 26.886216 53.153997 27 50 27 C 37.101867 27 29.818889 25.186433 26.699219 24.152344 L 27.371094 17.533203 L 27.373047 17.53125 C 27.685498 14.378734 30.300328 12 33.435547 12 z M 71.505859 24.710938 A 0.50005 0.50005 0 0 0 71.371094 24.730469 C 71.061526 24.812559 70.730717 24.895234 70.380859 24.980469 A 0.500709 0.500709 0 1 0 70.619141 25.953125 C 70.975283 25.866355 71.312474 25.781176 71.628906 25.697266 A 0.50005 0.50005 0 0 0 71.505859 24.710938 z M 68.484375 25.40625 A 0.50005 0.50005 0 0 0 68.400391 25.416016 C 66.987217 25.701625 65.344555 25.982128 63.4375 26.224609 A 0.50005 0.50005 0 1 0 63.5625 27.216797 C 65.493445 26.971278 67.162783 26.686875 68.599609 26.396484 A 0.50005 0.50005 0 0 0 68.484375 25.40625 z M 25.019531 32.005859 C 29.281351 33.310254 37.230226 35 50 35 C 62.769088 35 70.71566 33.310964 74.978516 32.005859 L 85.076172 34.472656 L 85.130859 34.480469 C 85.709204 34.556159 85.928039 34.890523 85.988281 35.296875 C 86.048521 35.703227 85.932181 36.091143 85.404297 36.332031 C 80.663051 38.494528 70.735645 42 50 42 C 29.276342 42 19.339406 38.465458 14.589844 36.287109 L 14.589844 36.289062 C 14.080946 36.055596 13.977716 35.687202 14.044922 35.279297 C 14.112132 34.871391 14.348845 34.529931 14.912109 34.457031 L 14.966797 34.449219 L 25.019531 32.005859 z M 26 41.929688 C 31.809014 43.107243 39.590064 44 50 44 C 60.413815 44 68.193868 43.115024 74 41.947266 L 74 65 C 74 69.381 70.103953 75.867703 64.626953 80.720703 C 64.182316 81.115066 63.725096 81.495479 63.261719 81.867188 C 63.73199 80.495254 64 79.030422 64 77.5 C 64 72.509044 60.503949 68.332795 55.832031 67.269531 C 56.418433 66.988075 57 66.419175 57 65.375 C 57 63.71 55.776609 63.078734 55.724609 63.052734 C 55.479609 62.930734 55.183594 63.029484 55.058594 63.271484 C 54.932594 63.514484 55.029484 63.815359 55.271484 63.943359 C 55.301484 63.959359 56 64.345 56 65.375 C 56 66.205 55.367219 66.426375 55.074219 66.484375 C 54.737219 66.335375 53.879 66 53 66 C 52.877 66 52.758016 66.045906 52.666016 66.128906 C 52.066016 66.666906 51.045 67 50 67 C 48.955 67 47.933984 66.666906 47.333984 66.128906 C 47.241984 66.045906 47.123 66 47 66 C 46.12 66 45.260828 66.336375 44.923828 66.484375 C 44.643828 66.430375 44 66.213 44 65.375 C 44 64.345 44.698656 63.959266 44.722656 63.947266 C 44.969656 63.823266 45.071266 63.524344 44.947266 63.277344 C 44.822266 63.030344 44.522391 62.930734 44.275391 63.052734 C 44.223391 63.078734 43 63.71 43 65.375 C 43 66.419175 43.581567 66.988075 44.167969 67.269531 C 39.496051 68.332795 36 72.509044 36 77.5 C 36 79.029538 36.266576 80.493978 36.736328 81.865234 C 36.273467 81.493677 35.81721 81.113993 35.373047 80.720703 C 29.896047 75.867703 26 69.381 26 65 L 26 41.929688 z M 24 45.207031 L 24 57.693359 C 23.090933 56.916667 22.246548 55.844949 21.583984 54.636719 C 20.587182 52.818978 20 50.724693 20 49.154297 C 20 47.740136 20.335943 46.924337 21.0625 46.304688 C 21.646175 45.806896 22.611081 45.424978 24 45.207031 z M 76 45.207031 C 77.388919 45.424978 78.353825 45.806896 78.9375 46.304688 C 79.664057 46.924337 80 47.740136 80 49.154297 C 80 50.724693 79.412818 52.818978 78.416016 54.636719 C 77.753452 55.844949 76.909067 56.916667 76 57.693359 L 76 45.207031 z M 33.488281 46 C 31.014287 46 29 48.021647 29 50.5 L 29 56.5 C 29 58.978504 31.015164 61 33.488281 61 L 42.228516 61 C 44.343079 61 46.174662 59.51447 46.617188 57.443359 L 47.898438 51.443359 C 47.930113 51.295104 47.950257 51.147108 47.966797 51 L 52.033203 51 C 52.049743 51.147108 52.069887 51.295104 52.101562 51.443359 L 53.382812 57.443359 C 53.825339 59.51447 55.656921 61 57.771484 61 L 66.511719 61 C 68.984836 61 71 58.978504 71 56.5 L 71 50.5 C 71 48.021647 68.985713 46 66.511719 46 L 56.490234 46 C 54.14303 46 52.281901 47.803618 52.033203 50 L 47.966797 50 C 47.718099 47.803618 45.85697 46 43.509766 46 L 33.488281 46 z M 33.488281 47 L 43.509766 47 C 45.740508 47 47.389819 49.044184 46.921875 51.234375 L 45.638672 57.234375 C 45.293198 58.851264 43.875952 60 42.228516 60 L 33.488281 60 C 31.557398 60 30 58.439496 30 56.5 L 30 50.5 C 30 48.560353 31.556275 47 33.488281 47 z M 56.490234 47 L 66.511719 47 C 68.443725 47 70 48.560353 70 50.5 L 70 56.5 C 70 58.439496 68.442602 60 66.511719 60 L 57.771484 60 C 56.124048 60 54.706802 58.851264 54.361328 57.234375 L 53.078125 51.234375 C 52.610181 49.044184 54.259492 47 56.490234 47 z M 36.5 48 C 33.016 48 31.104391 50.707266 31.025391 50.822266 L 32.667969 51.964844 C 32.723969 51.884844 34.084 50 36.5 50 C 37.258638 50 37.941028 50.17348 38.59375 50.433594 C 38.275897 50.636355 37.985086 50.892213 37.748047 51.208984 C 37.970047 51.078984 38.225 51 38.5 51 C 39.328 51 40 51.672 40 52.5 C 40 53.328 39.328 54 38.5 54 C 37.803 54 37.222687 53.522906 37.054688 52.878906 C 37.023688 53.080906 37 53.287 37 53.5 C 37 55.433 38.343 57 40 57 C 41.657 57 43 55.433 43 53.5 C 43 53.185285 42.953477 52.885831 42.886719 52.595703 C 43.542175 52.837309 44.23647 53 45 53 L 45 51 C 43.824 51 42.786938 50.40575 41.585938 49.71875 C 40.177937 48.91275 38.583 48 36.5 48 z M 63.5 48 C 61.417 48 59.822063 48.91275 58.414062 49.71875 C 57.213062 50.40575 56.176 51 55 51 L 55 53 C 56.708 53 58.081203 52.213125 59.408203 51.453125 C 59.442317 51.433587 59.475742 51.415954 59.509766 51.396484 C 59.809298 51.670787 60 52.062145 60 52.5 C 60 53.328 59.328 54 58.5 54 C 57.803 54 57.222687 53.522906 57.054688 52.878906 C 57.023688 53.080906 57 53.287 57 53.5 C 57 55.433 58.343 57 60 57 C 61.657 57 63 55.433 63 53.5 C 63 52.167041 62.353893 51.022698 61.414062 50.431641 C 62.064532 50.173209 62.744248 50 63.5 50 C 65.916 50 67.276031 51.884844 67.332031 51.964844 L 68.974609 50.822266 C 68.895609 50.707266 66.984 48 63.5 48 z M 46.5 68 L 53.5 68 C 58.752797 68 63 72.247203 63 77.5 C 63 79.249853 62.639846 80.914543 61.992188 82.425781 C 61.98981 82.424713 61.988719 82.424911 61.986328 82.423828 C 61.766922 82.933789 61.511149 83.424018 61.228516 83.896484 C 61.184307 83.970535 61.139437 84.044141 61.09375 84.117188 C 60.953637 84.340795 60.809803 84.561531 60.65625 84.775391 C 60.648114 84.786734 60.639032 84.797279 60.630859 84.808594 C 60.132586 85.497708 59.564505 86.133166 58.939453 86.707031 C 58.892261 86.750309 58.844731 86.793381 58.796875 86.835938 C 58.603488 87.008125 58.406955 87.175846 58.203125 87.335938 C 58.166105 87.364961 58.127198 87.391309 58.089844 87.419922 C 57.685226 87.730448 57.259724 88.015374 56.818359 88.275391 C 56.767667 88.305154 56.719116 88.338122 56.667969 88.367188 C 56.473331 88.478185 56.273233 88.579034 56.072266 88.679688 C 55.957149 88.737114 55.84172 88.79371 55.724609 88.847656 C 55.531466 88.937 55.336966 89.023907 55.138672 89.103516 C 54.980341 89.16678 54.817709 89.222394 54.65625 89.279297 C 54.410859 89.366216 54.162276 89.445863 53.910156 89.517578 C 53.666093 89.586607 53.42179 89.652683 53.171875 89.707031 C 53.042138 89.735425 52.910497 89.758889 52.779297 89.783203 C 52.524771 89.830049 52.267517 89.869186 52.007812 89.900391 C 51.883173 89.915478 51.758546 89.931985 51.632812 89.943359 C 51.259214 89.976879 50.882406 90 50.5 90 L 49.5 90 C 49.115621 90 48.736805 89.977222 48.361328 89.943359 C 48.235416 89.931917 48.111144 89.915556 47.986328 89.900391 C 47.731899 89.8697 47.479928 89.830864 47.230469 89.785156 C 47.092155 89.759646 46.953098 89.735117 46.816406 89.705078 C 46.568598 89.650939 46.32603 89.586155 46.083984 89.517578 C 45.845888 89.449784 45.611018 89.374329 45.378906 89.292969 C 45.198938 89.230157 45.017892 89.168353 44.841797 89.097656 C 44.658363 89.023719 44.479807 88.941653 44.300781 88.859375 C 44.154078 88.792197 44.008811 88.723011 43.865234 88.650391 C 43.686352 88.559607 43.507811 88.468152 43.333984 88.369141 C 43.240817 88.316222 43.152196 88.256396 43.060547 88.201172 C 42.389181 87.795591 41.757285 87.33295 41.175781 86.8125 C 41.124298 86.766452 41.074147 86.718759 41.023438 86.671875 C 40.212659 85.921831 39.500272 85.066523 38.910156 84.126953 C 38.841183 84.01688 38.774587 83.905315 38.708984 83.792969 C 38.602176 83.610536 38.498068 83.42643 38.400391 83.238281 C 38.340658 83.122849 38.286674 83.004222 38.230469 82.886719 C 38.144401 82.707419 38.056155 82.529591 37.978516 82.345703 C 37.976315 82.347159 37.974845 82.346217 37.972656 82.347656 C 37.346187 80.85748 37 79.21939 37 77.5 C 37 72.247203 41.247203 68 46.5 68 z M 46.5 72 C 43.468687 72 41 74.468687 41 77.5 L 41 78.574219 C 41 81.124798 42.745399 83.403192 45.255859 83.935547 L 45.257812 83.935547 C 45.293712 83.942947 45.329222 83.950431 45.361328 83.957031 L 45.363281 83.957031 C 46.735681 84.232829 48 83.122807 48 81.740234 L 48 79.5 C 48 79.218531 48.218531 79 48.5 79 L 51.5 79 C 51.781469 79 52 79.218531 52 79.5 L 52 81.740234 C 52 83.122807 53.264624 84.23145 54.636719 83.957031 L 54.742188 83.935547 L 54.744141 83.935547 C 57.277343 83.39947 59 80.960879 59 78.410156 L 59 77.5 C 59 74.468687 56.531313 72 53.5 72 L 46.5 72 z M 56.353516 74.044922 C 57.35126 74.869398 58 76.100476 58 77.5 L 58 78.410156 C 58 80.505433 56.54986 82.531104 54.537109 82.957031 L 54.439453 82.976562 C 53.691552 83.126145 53 82.519662 53 81.740234 L 53 79.5 C 53 78.677469 52.322531 78 51.5 78 L 48.5 78 C 47.677469 78 47 78.677469 47 79.5 L 47 81.740234 C 47 82.518952 46.309224 83.125257 45.5625 82.976562 C 45.52791 82.969463 45.494031 82.963421 45.462891 82.957031 C 43.427352 82.525385 42 80.669639 42 78.574219 L 42 77.5 C 42 76.105979 42.643795 74.879231 43.634766 74.054688 C 44.63511 74.372408 45.643765 74.587622 46.669922 74.740234 C 47.764922 74.908234 48.874 74.988 50 75 C 51.126 74.985 52.234125 74.902422 53.328125 74.732422 C 54.350791 74.577529 55.357319 74.36267 56.353516 74.044922 z"/></svg>