<svg xmlns="http://www.w3.org/2000/svg" height="934pt" version="1.1" viewBox="0 0 934.99834 934" width="934pt">
<g id="surface1">
<path d="M 599.957031 686.15625 C 561.234375 686.15625 529.835938 717.550781 529.835938 756.28125 C 529.835938 795.011719 561.234375 826.402344 599.957031 826.402344 C 638.691406 826.402344 670.082031 795.011719 670.082031 756.28125 C 670.046875 717.574219 638.671875 686.199219 599.957031 686.15625 Z M 599.957031 795.234375 C 578.449219 795.234375 561 777.800781 561 756.28125 C 561 734.769531 578.449219 717.320312 599.957031 717.320312 C 621.476562 717.320312 638.914062 734.769531 638.914062 756.28125 C 638.914062 777.800781 621.476562 795.234375 599.957031 795.234375 Z M 599.957031 795.234375 " style=" stroke:none;fill-rule:nonzero;fill:rgb(0%,0%,0%);fill-opacity:1;" />
<path d="M 755.789062 795.234375 C 717.070312 795.234375 685.664062 826.636719 685.664062 865.367188 C 685.664062 904.089844 717.070312 935.492188 755.789062 935.492188 C 794.519531 935.492188 825.921875 904.089844 825.921875 865.367188 C 825.875 826.65625 794.507812 795.285156 755.789062 795.234375 Z M 755.789062 904.320312 C 734.277344 904.320312 716.832031 886.882812 716.832031 865.367188 C 716.832031 843.847656 734.277344 826.402344 755.789062 826.402344 C 777.3125 826.402344 794.75 843.847656 794.75 865.367188 C 794.75 886.882812 777.3125 904.320312 755.789062 904.320312 Z M 755.789062 904.320312 " style=" stroke:none;fill-rule:nonzero;fill:rgb(0%,0%,0%);fill-opacity:1;" />
<path d="M 13.039062 311.945312 C 38.421875 316.175781 58.320312 336.085938 62.554688 361.480469 C 63.828125 368.96875 70.316406 374.460938 77.921875 374.460938 C 85.523438 374.460938 92.015625 368.96875 93.289062 361.480469 C 97.519531 336.085938 117.417969 316.175781 142.804688 311.945312 C 150.308594 310.671875 155.796875 304.179688 155.796875 296.574219 C 155.796875 288.964844 150.308594 282.484375 142.804688 281.210938 C 117.417969 276.964844 97.519531 257.0625 93.289062 231.671875 C 92.015625 224.171875 85.523438 218.683594 77.921875 218.683594 C 70.316406 218.683594 63.828125 224.171875 62.554688 231.671875 C 58.320312 257.0625 38.421875 276.964844 13.039062 281.210938 C 5.535156 282.484375 0.0507812 288.964844 0.0507812 296.574219 C 0.0507812 304.179688 5.535156 310.671875 13.039062 311.945312 Z M 77.921875 274.324219 C 83.992188 282.972656 91.53125 290.496094 100.179688 296.574219 C 91.53125 302.652344 83.992188 310.179688 77.921875 318.828125 C 71.847656 310.179688 64.316406 302.652344 55.667969 296.574219 C 64.316406 290.496094 71.847656 282.972656 77.921875 274.324219 Z M 77.921875 274.324219 " style=" stroke:none;fill-rule:nonzero;fill:rgb(0%,0%,0%);fill-opacity:1;" />
<path d="M 926.160156 189.046875 L 536.582031 2.046875 C 532.3125 -0.015625 527.332031 -0.015625 523.058594 2.046875 L 133.480469 189.96875 C 128.234375 192.496094 124.839844 197.730469 124.675781 203.539062 C 124.503906 209.359375 127.582031 214.78125 132.664062 217.617188 L 522.246094 434.875 C 526.972656 437.519531 532.714844 437.519531 537.441406 434.875 L 732.414062 325.652344 L 732.414062 530.777344 C 673.820312 534.234375 618.039062 557.09375 573.871094 595.777344 L 529.835938 634.277344 L 522.292969 627.6875 L 501.773438 651.058594 L 519.585938 666.644531 C 525.453125 671.785156 534.21875 671.785156 540.089844 666.644531 L 594.398438 619.148438 C 636.921875 581.949219 691.507812 561.464844 748 561.484375 C 756.609375 561.484375 763.585938 554.515625 763.585938 545.902344 L 763.585938 308.199219 L 841.5 264.566406 L 841.5 390.070312 C 834.191406 390.066406 827.863281 395.140625 826.285156 402.273438 L 795.117188 542.53125 C 794.085938 547.140625 795.214844 551.980469 798.175781 555.65625 C 801.136719 559.347656 805.609375 561.496094 810.335938 561.484375 L 903.832031 561.484375 C 908.5625 561.496094 913.039062 559.347656 916 555.65625 C 918.957031 551.980469 920.082031 547.140625 919.054688 542.53125 L 887.894531 402.273438 C 886.308594 395.140625 879.976562 390.066406 872.664062 390.070312 L 872.664062 247.113281 L 927.023438 216.675781 C 932.097656 213.839844 935.175781 208.40625 934.992188 202.59375 C 934.808594 196.78125 931.40625 191.550781 926.160156 189.035156 Z M 884.40625 530.324219 L 829.769531 530.324219 L 853.96875 421.234375 L 860.203125 421.234375 Z M 859.253906 218.90625 C 859.070312 218.90625 858.90625 218.773438 858.703125 218.730469 L 574.125 188.777344 C 567.097656 167.226562 545.570312 153.867188 523.128906 157.121094 C 500.699219 160.375 483.859375 179.316406 483.25 201.976562 C 482.644531 224.640625 498.429688 244.460938 520.664062 248.917969 C 542.886719 253.371094 565.097656 241.1875 573.277344 220.035156 L 812.300781 245.152344 L 529.835938 403.378906 L 174.058594 204.992188 L 529.835938 33.367188 L 885.597656 204.132812 Z M 545.414062 203.070312 C 545.414062 211.675781 538.445312 218.65625 529.835938 218.65625 C 521.230469 218.65625 514.25 211.675781 514.25 203.070312 C 514.25 194.464844 521.230469 187.492188 529.835938 187.492188 C 538.445312 187.492188 545.414062 194.464844 545.414062 203.070312 Z M 545.414062 203.070312 " style=" stroke:none;fill-rule:nonzero;fill:rgb(0%,0%,0%);fill-opacity:1;" />
<path d="M 771.371094 623.820312 C 732.652344 623.820312 701.25 655.214844 701.25 693.945312 C 701.25 732.675781 732.652344 764.074219 771.371094 764.074219 C 810.101562 764.074219 841.5 732.675781 841.5 693.945312 C 841.460938 655.238281 810.089844 623.871094 771.371094 623.820312 Z M 771.371094 732.90625 C 749.863281 732.90625 732.414062 715.46875 732.414062 693.945312 C 732.414062 672.433594 749.863281 654.984375 771.371094 654.984375 C 792.890625 654.984375 810.335938 672.433594 810.335938 693.945312 C 810.335938 715.46875 792.890625 732.90625 771.371094 732.90625 Z M 771.371094 732.90625 " style=" stroke:none;fill-rule:nonzero;fill:rgb(0%,0%,0%);fill-opacity:1;" />
<path d="M 483.082031 819.953125 L 483.082031 686.15625 C 482.953125 596.832031 428.433594 516.59375 345.433594 483.570312 L 387.824219 402.085938 C 391.515625 394.949219 389.171875 386.171875 382.414062 381.832031 L 366.835938 371.835938 C 342.835938 356.613281 312.683594 354.804688 287.035156 367.039062 C 273.050781 373.679688 256.824219 373.679688 242.832031 367.039062 C 217.191406 354.777344 187.03125 356.589844 163.039062 371.835938 L 147.453125 381.832031 C 140.699219 386.171875 138.351562 394.949219 142.046875 402.085938 L 184.394531 483.570312 C 101.40625 516.59375 46.886719 596.832031 46.75 686.15625 L 46.75 819.953125 L 14.242188 852.453125 C 0.332031 866.375 -3.824219 887.296875 3.707031 905.460938 C 11.230469 923.636719 28.96875 935.492188 48.636719 935.492188 L 481.203125 935.492188 C 500.871094 935.492188 518.609375 923.636719 526.136719 905.460938 C 533.667969 887.296875 529.503906 866.375 515.597656 852.453125 Z M 176.230469 400.34375 L 179.847656 398.023438 C 194.738281 388.601562 213.417969 387.480469 229.316406 395.074219 C 251.835938 405.800781 277.996094 405.800781 300.527344 395.074219 C 316.425781 387.480469 335.097656 388.601562 349.992188 398.023438 L 353.605469 400.34375 L 315.261719 474.082031 C 282.1875 465.957031 247.652344 465.957031 214.585938 474.082031 Z M 481.203125 904.320312 L 48.636719 904.320312 C 41.570312 904.324219 35.199219 900.066406 32.488281 893.535156 C 29.785156 887.007812 31.28125 879.492188 36.28125 874.492188 L 73.347656 837.421875 C 76.28125 834.503906 77.921875 830.539062 77.921875 826.402344 L 77.921875 686.15625 C 77.921875 582.878906 161.644531 499.15625 264.914062 499.15625 C 368.191406 499.15625 451.914062 582.878906 451.914062 686.15625 L 451.914062 826.402344 C 451.921875 830.539062 453.558594 834.503906 456.492188 837.421875 L 493.5625 874.492188 C 498.5625 879.492188 500.058594 887.007812 497.351562 893.535156 C 494.640625 900.066406 488.269531 904.324219 481.203125 904.320312 Z M 481.203125 904.320312 " style=" stroke:none;fill-rule:nonzero;fill:rgb(0%,0%,0%);fill-opacity:1;" />
<path d="M 280.5 686.15625 L 249.335938 686.15625 C 240.726562 686.15625 233.75 679.175781 233.75 670.570312 C 233.75 661.964844 240.726562 654.984375 249.335938 654.984375 L 311.671875 654.984375 L 311.671875 623.820312 L 280.5 623.820312 L 280.5 592.652344 L 249.335938 592.652344 L 249.335938 623.820312 C 223.515625 623.820312 202.582031 644.75 202.582031 670.570312 C 202.582031 696.382812 223.515625 717.320312 249.335938 717.320312 L 280.5 717.320312 C 289.109375 717.320312 296.085938 724.296875 296.085938 732.90625 C 296.085938 741.511719 289.109375 748.492188 280.5 748.492188 L 218.164062 748.492188 L 218.164062 779.652344 L 249.335938 779.652344 L 249.335938 810.820312 L 280.5 810.820312 L 280.5 779.652344 C 306.328125 779.652344 327.25 758.71875 327.25 732.90625 C 327.25 707.085938 306.328125 686.15625 280.5 686.15625 Z M 280.5 686.15625 " style=" stroke:none;fill-rule:nonzero;fill:rgb(0%,0%,0%);fill-opacity:1;" />
</g>
</svg>